<svg version="1.1" id="Layer_1" xmlns="http://www.w3.org/2000/svg" xmlns:xlink="http://www.w3.org/1999/xlink" x="0px" y="0px"
	 width="100%" viewBox="0 0 2684 3037" enable-background="new 0 0 2684 3037" xml:space="preserve">
<path fill="#010101" opacity="1.000000" stroke="none" 
	d="
M2686.000000,380.000000 
	C2686.000000,1266.575562 2686.000000,2153.151123 2686.000000,3039.863281 
	C1791.516479,3039.863281 897.032959,3039.863281 2.000000,3039.863281 
	C2.000000,2151.941406 2.000000,1263.882568 2.642921,375.127350 
	C5.786716,376.608032 8.425557,378.646912 10.767435,380.983398 
	C38.846004,408.997009 66.732880,437.205383 95.054657,464.970367 
	C100.530792,470.338837 102.484726,475.739014 102.475899,483.251495 
	C102.289108,642.237610 102.376740,801.224060 102.196579,960.210144 
	C102.188469,967.370056 103.980087,972.480957 109.217941,977.659912 
	C151.168488,1019.138062 192.761932,1060.977295 234.541977,1102.628418 
	C237.316040,1105.393921 240.722641,1107.524780 244.042633,1110.112671 
	C241.060577,1113.358276 239.562744,1115.112671 237.937088,1116.739502 
	C195.132736,1159.574585 152.375061,1202.456665 109.415382,1245.135498 
	C104.664009,1249.855835 102.169754,1254.417725 102.173523,1261.450928 
	C102.357468,1604.754639 102.334473,1948.058472 102.334488,2291.362305 
	C102.334488,2293.865479 102.334480,2296.368896 102.334480,2298.872070 
	C105.460510,2297.243896 106.913498,2295.252686 108.142471,2293.131592 
	C132.218964,2251.579346 156.277115,2210.016113 180.323151,2168.446289 
	C206.242569,2123.637451 232.207504,2078.854736 258.034515,2033.992676 
	C275.735443,2003.245972 293.134216,1972.325195 310.849182,1941.586670 
	C334.207123,1901.056274 357.681488,1860.592529 381.269348,1820.195557 
	C384.718170,1814.289062 386.490234,1808.465820 386.477997,1801.456177 
	C386.277344,1686.466431 386.335510,1571.476196 386.335510,1456.486084 
	C386.335510,1453.028198 386.335510,1449.570435 386.335510,1444.124756 
	C528.162598,1585.967651 668.338501,1726.159180 808.900696,1866.737061 
	C810.794495,1863.833618 812.149353,1861.964233 813.292297,1859.973267 
	C830.930908,1829.246216 848.462524,1798.457520 866.177795,1767.774902 
	C892.893188,1721.504395 919.782593,1675.334351 946.503479,1629.067017 
	C970.194275,1588.046387 993.720642,1546.930664 1017.387451,1505.896118 
	C1034.114014,1476.894897 1050.983643,1447.976074 1067.735352,1418.989136 
	C1086.305664,1386.855103 1104.668701,1354.599609 1123.497681,1322.618042 
	C1126.532104,1317.463989 1127.745728,1312.555176 1127.736084,1306.753662 
	C1127.625732,1239.759644 1127.578491,1172.765015 1127.804077,1105.771484 
	C1127.826050,1099.255737 1125.857788,1094.777954 1121.267944,1090.191650 
	C817.834839,786.981384 514.503662,483.669037 211.299576,180.229874 
	C206.146179,175.072479 201.081070,173.107040 193.874268,173.139160 
	C133.214020,173.409531 72.552055,173.282181 11.890633,173.323364 
	C8.593603,173.325607 5.296871,173.764404 2.000000,174.000000 
	C2.000000,116.682274 2.000000,59.364540 2.000000,2.111227 
	C896.666687,2.111227 1791.333374,2.111227 2686.000000,2.111227 
	C2686.000000,58.873699 2686.000000,115.524948 2685.108643,172.775116 
	C2624.550537,173.347870 2564.881592,173.563446 2505.218506,173.090927 
	C2493.327393,172.996780 2482.699707,173.350677 2476.120850,185.013351 
	C2475.963379,185.292587 2475.655029,185.486130 2475.419189,185.721634 
	C2457.776855,203.331543 2440.119141,220.926010 2422.496338,238.555405 
	C2396.408936,264.652924 2370.382080,290.810974 2344.263672,316.877502 
	C2314.854736,346.228027 2285.317871,375.450775 2255.937988,404.830109 
	C2226.084961,434.682068 2196.411377,464.713501 2166.555420,494.562500 
	C2136.929443,524.181824 2107.110352,553.608215 2077.491455,583.234985 
	C2044.579956,616.155334 2011.901611,649.309082 1978.938599,682.177734 
	C1924.500366,736.460205 1869.779175,790.459412 1815.427124,844.827881 
	C1752.049072,908.225098 1688.951538,971.902710 1625.705933,1035.432373 
	C1606.894775,1054.327881 1588.066406,1073.207520 1569.075562,1091.921509 
	C1565.292358,1095.649658 1563.531494,1099.419189 1563.547119,1104.911743 
	C1563.740845,1172.572144 1563.609619,1240.233643 1563.820435,1307.893921 
	C1563.834229,1312.301392 1565.161133,1317.127930 1567.246216,1321.027466 
	C1573.794678,1333.274536 1580.987061,1345.177856 1587.948364,1357.203491 
	C1614.852417,1403.680298 1641.782104,1450.141968 1668.667847,1496.629272 
	C1705.848511,1560.917358 1743.059814,1625.188110 1780.141357,1689.533325 
	C1810.275513,1741.823364 1840.215454,1794.225342 1870.304810,1846.541260 
	C1874.157593,1853.239990 1878.392456,1859.718994 1883.354858,1867.766479 
	C2024.636597,1726.570801 2164.815918,1586.476807 2305.673584,1445.705078 
	C2305.673584,1447.579102 2305.673584,1449.075806 2305.673584,1450.572510 
	C2305.673584,1540.231689 2305.606445,1629.890869 2305.831787,1719.549561 
	C2305.846191,1725.268799 2303.528809,1728.739014 2299.869385,1732.386597 
	C2261.164307,1770.964966 2222.548828,1809.633179 2183.907471,1848.275391 
	C2122.695312,1909.488525 2061.474854,1970.693115 2000.284302,2031.927734 
	C1995.436279,2036.779297 1990.795532,2041.837891 1986.111694,2046.744629 
	C2035.166626,2131.717285 2083.710205,2215.803955 2132.418945,2300.177246 
	C2134.242676,2298.584229 2135.551758,2297.561523 2136.723633,2296.399902 
	C2161.280518,2272.059570 2185.903809,2247.785156 2210.345215,2223.329346 
	C2240.674561,2192.982422 2270.810791,2162.442871 2301.104004,2132.059814 
	C2333.548096,2099.519531 2366.076660,2067.063721 2398.570312,2034.572998 
	C2459.378906,1973.770020 2520.113037,1912.892090 2581.127930,1852.297363 
	C2586.586914,1846.876221 2588.465820,1841.480103 2588.459229,1834.020874 
	C2588.290771,1643.370361 2588.326416,1452.719604 2588.326416,1262.068970 
	C2588.326416,1260.402466 2588.180664,1258.720581 2588.355225,1257.072510 
	C2588.773682,1253.120728 2587.429932,1250.209106 2584.407959,1247.476196 
	C2578.744385,1242.354004 2573.481445,1236.787598 2568.077393,1231.380371 
	C2533.973877,1197.256348 2499.873535,1163.129028 2465.781494,1128.993408 
	C2460.186523,1123.391235 2454.637695,1117.742920 2447.186768,1110.216064 
	C2450.506348,1107.944458 2453.601807,1106.451050 2455.901855,1104.159546 
	C2497.457764,1062.755493 2538.811035,1021.147522 2580.523193,979.901855 
	C2586.177246,974.310852 2588.520264,968.853027 2588.508057,960.835632 
	C2588.264648,801.516052 2588.367676,642.195923 2588.186768,482.876129 
	C2588.178955,475.947113 2590.295654,471.118896 2595.196777,466.344238 
	C2614.004150,448.022705 2632.401611,429.281097 2651.002197,410.746552 
	C2661.107666,400.677185 2671.293457,390.688324 2681.501465,380.722900 
	C2682.697998,379.554657 2684.005615,377.069580 2686.000000,380.000000 
M1090.237793,31.013496 
	C1067.459229,35.500916 1044.547241,39.406464 1021.929932,44.596592 
	C974.490234,55.482891 927.537781,68.229492 881.355591,83.698929 
	C841.431458,97.072105 802.081665,111.900276 763.370483,128.512268 
	C709.913879,151.451889 658.050110,177.529755 607.650696,206.495407 
	C559.247192,234.313965 512.875488,265.296387 467.864777,298.310059 
	C461.892212,302.690735 456.220032,307.481018 451.525879,311.197205 
	C519.456848,379.128448 586.578369,446.250214 654.064819,513.736938 
	C734.595947,456.109100 821.857666,408.853394 915.099426,372.778687 
	C1007.974487,336.845947 1103.739380,312.579559 1203.665283,301.082245 
	C1203.665283,306.148529 1203.665161,309.762238 1203.665161,313.375977 
	C1203.665161,410.369751 1203.730713,507.363678 1203.519165,604.356995 
	C1203.504883,610.867004 1205.257690,615.653931 1209.850098,620.100281 
	C1220.833130,630.733826 1231.496704,641.696594 1242.330322,652.485168 
	C1268.448364,678.494507 1294.615479,704.454773 1320.706665,730.491150 
	C1328.417725,738.186096 1335.941162,746.069031 1344.517334,754.856262 
	C1341.369019,757.544250 1338.705933,759.525391 1336.381836,761.846130 
	C1293.945923,804.224121 1251.591919,846.684204 1209.076172,888.981873 
	C1205.270142,892.768372 1203.422607,896.500122 1203.536743,902.001282 
	C1203.888916,918.992859 1203.665161,935.996460 1203.665161,952.995361 
	C1203.665161,1077.320679 1203.646729,1201.646118 1203.727905,1325.971436 
	C1203.731445,1331.401245 1202.882935,1336.128906 1199.974121,1340.982178 
	C1190.257690,1357.194214 1181.116821,1373.750854 1171.740234,1390.166870 
	C1154.818848,1419.791870 1137.979858,1449.464478 1120.934204,1479.017700 
	C1100.900391,1513.751709 1080.610352,1548.338013 1060.565186,1583.065552 
	C1039.829590,1618.988770 1019.297852,1655.029541 998.599060,1690.974121 
	C968.496155,1743.249390 938.263000,1795.449707 908.200012,1847.747925 
	C884.893494,1888.292358 861.858032,1928.992798 838.527832,1969.523438 
	C812.730286,2014.340454 786.658936,2058.999756 760.846313,2103.808105 
	C736.356201,2146.321045 712.132629,2188.987305 687.634827,2231.495850 
	C658.842407,2281.456543 629.810669,2331.279785 601.015259,2381.238770 
	C579.001160,2419.432617 557.259949,2457.783447 535.273682,2495.993408 
	C515.930542,2529.609863 496.312103,2563.068359 477.004913,2596.705322 
	C456.704620,2632.072510 436.725647,2667.624268 416.428680,2702.993652 
	C397.458771,2736.050293 378.325195,2769.013672 359.068420,2801.903809 
	C356.660828,2806.015869 356.362366,2809.692871 357.619385,2814.114746 
	C360.683777,2824.894531 363.380432,2835.778809 366.269257,2846.609131 
	C378.284637,2891.655029 390.286133,2936.704346 402.376648,2981.729980 
	C404.067749,2988.027832 406.224976,2994.200684 408.369751,3001.083984 
	C429.058472,2995.601318 448.895660,2990.372559 468.717529,2985.086182 
	C510.329865,2973.987549 551.916687,2962.792236 593.562805,2951.822510 
	C599.091064,2950.366455 602.848999,2947.811768 605.646912,2942.599121 
	C613.178040,2928.568115 621.243652,2914.820557 629.220581,2901.032227 
	C649.992310,2865.126953 670.872070,2829.284668 691.628662,2793.370605 
	C708.032104,2764.989014 724.253540,2736.502441 740.672302,2708.129639 
	C755.621826,2682.295410 770.844849,2656.619385 785.737183,2630.752441 
	C805.917542,2595.700195 825.812744,2560.483643 845.987305,2525.427979 
	C866.648376,2489.526855 887.526672,2453.751221 908.259399,2417.891357 
	C929.174744,2381.715820 950.113342,2345.553223 970.813110,2309.254639 
	C973.799316,2304.017822 977.198181,2301.925537 983.394653,2301.945312 
	C1054.056030,2302.172119 1124.718384,2302.083496 1195.380493,2302.117676 
	C1197.598511,2302.118896 1199.816284,2302.534180 1202.341919,2302.787354 
	C1202.341919,2306.981445 1202.341919,2310.628174 1202.341919,2314.275146 
	C1202.341919,2409.602295 1202.341919,2504.929688 1202.341919,2600.256836 
	C1202.341919,2620.922119 1202.196777,2641.589111 1202.445679,2662.251465 
	C1202.506836,2667.316895 1201.064575,2671.181885 1197.554443,2674.702393 
	C1192.620483,2679.650879 1187.863770,2684.785156 1183.194214,2689.986328 
	C1145.484619,2731.989990 1107.846558,2774.057373 1070.119019,2816.044922 
	C1045.481445,2843.464111 1020.719666,2870.771484 996.040710,2898.153320 
	C991.197571,2903.527100 986.479004,2909.012939 980.454590,2915.867432 
	C1223.378540,2975.589600 1464.587769,2975.614014 1706.616821,2916.050781 
	C1705.554321,2914.027100 1705.265991,2913.049316 1704.650269,2912.366699 
	C1677.517578,2882.283203 1650.312012,2852.265869 1623.208252,2822.156494 
	C1579.414795,2773.506592 1535.748535,2724.741699 1491.830566,2676.204834 
	C1487.546387,2671.470215 1485.513306,2666.917480 1485.524170,2660.408936 
	C1485.718140,2544.416504 1485.665039,2428.424072 1485.665039,2312.431396 
	C1485.665039,2309.203369 1485.665039,2305.975098 1485.665039,2302.476074 
	C1563.215820,2302.476074 1639.746216,2302.476074 1716.660034,2302.476074 
	C1721.252930,2310.672607 1725.684570,2318.791504 1730.308228,2326.799561 
	C1763.449951,2384.201172 1796.605713,2441.593994 1829.807129,2498.960938 
	C1854.229370,2541.159180 1878.777588,2583.284912 1903.177490,2625.496338 
	C1925.410522,2663.958984 1947.499512,2702.504395 1969.687378,2740.992920 
	C2008.774292,2808.796143 2047.911987,2876.570312 2086.921387,2944.418213 
	C2088.879150,2947.823486 2091.130859,2949.873047 2094.999023,2950.888184 
	C2115.838867,2956.358154 2136.604492,2962.108643 2157.413818,2967.695557 
	C2188.696289,2976.093994 2219.984131,2984.471924 2251.289551,2992.784180 
	C2261.813721,2995.578613 2272.397949,2998.146484 2283.654297,3000.995117 
	C2288.146729,2984.133545 2292.460693,2967.941406 2296.774414,2951.749268 
	C2309.110840,2905.442139 2321.371094,2859.114014 2333.925293,2812.865967 
	C2334.956543,2809.065918 2334.985352,2806.506592 2332.927979,2802.956299 
	C2304.637939,2754.138916 2276.513184,2705.224854 2248.512695,2656.240234 
	C2222.552490,2610.824463 2196.807617,2565.285645 2170.934570,2519.819824 
	C2150.750732,2484.352051 2130.594727,2448.867676 2110.282715,2413.473389 
	C2086.339111,2371.749512 2062.200195,2330.137695 2038.218262,2288.435791 
	C2005.499023,2231.540771 1972.923340,2174.562744 1940.143433,2117.702637 
	C1916.286865,2076.321289 1892.157959,2035.097046 1868.223755,1993.760254 
	C1825.705688,1920.328003 1783.180420,1846.900024 1740.783813,1773.397705 
	C1718.742554,1735.185181 1697.082520,1696.752808 1675.049316,1658.535645 
	C1641.109375,1599.666138 1606.965332,1540.914429 1572.967163,1482.078613 
	C1545.918457,1435.269165 1519.017822,1388.374023 1491.878296,1341.617432 
	C1488.756958,1336.239868 1487.578003,1330.872070 1487.582764,1324.727051 
	C1487.689575,1184.736206 1487.606445,1044.744995 1487.831787,904.754395 
	C1487.843506,897.465332 1485.684204,892.546936 1480.553467,887.466675 
	C1438.394897,845.723022 1396.530273,803.682678 1354.584839,761.724060 
	C1352.106079,759.244507 1349.699829,756.692749 1346.565186,753.457764 
	C1350.008667,750.466370 1352.666626,748.423218 1355.019287,746.074219 
	C1397.004272,704.155212 1438.884399,662.130737 1481.000732,620.344360 
	C1485.839966,615.542847 1487.847046,610.785767 1487.829712,603.865845 
	C1487.587158,506.539368 1487.661621,409.212128 1487.678711,311.885040 
	C1487.679321,308.418488 1487.882568,304.951996 1488.011230,300.852020 
	C1690.262207,325.905365 1873.155151,397.120087 2038.969727,514.723816 
	C2106.412109,447.322815 2173.805908,380.116791 2241.868896,311.617218 
	C2239.479492,310.051208 2238.320068,309.378326 2237.254150,308.579956 
	C2197.100586,278.504761 2155.892822,249.968094 2112.977051,223.961761 
	C2071.275635,198.691132 2028.569458,175.258865 1984.570068,154.190750 
	C1944.520264,135.013916 1903.948364,117.018616 1862.105957,102.164513 
	C1828.132446,90.103851 1793.894409,78.708954 1759.439453,68.104584 
	C1714.824219,54.373100 1669.360229,43.817528 1623.448120,35.391365 
	C1596.759644,30.493244 1569.986084,25.908195 1543.105225,22.254375 
	C1520.126831,19.131016 1496.883545,17.998955 1473.859131,15.160976 
	C1435.521606,10.435533 1397.001587,9.667570 1358.490112,9.462286 
	C1327.570435,9.297468 1296.640747,10.544278 1265.720215,11.351171 
	C1256.440430,11.593336 1247.163086,12.299831 1237.908813,13.080168 
	C1222.714233,14.361422 1207.515381,15.660586 1192.362061,17.345619 
	C1171.284668,19.689386 1150.233276,22.284313 1129.198975,24.989910 
	C1116.726685,26.594168 1104.308472,28.618174 1090.237793,31.013496 
z"/>
<path fill="#FFFFFF" opacity="1.000000" stroke="none" 
	d="
M2686.000000,379.062683 
	C2684.005615,377.069580 2682.697998,379.554657 2681.501465,380.722900 
	C2671.293457,390.688324 2661.107666,400.677185 2651.002197,410.746552 
	C2632.401611,429.281097 2614.004150,448.022705 2595.196777,466.344238 
	C2590.295654,471.118896 2588.178955,475.947113 2588.186768,482.876129 
	C2588.367676,642.195923 2588.264648,801.516052 2588.508057,960.835632 
	C2588.520264,968.853027 2586.177246,974.310852 2580.523193,979.901855 
	C2538.811035,1021.147522 2497.457764,1062.755493 2455.901855,1104.159546 
	C2453.601807,1106.451050 2450.506348,1107.944458 2447.186768,1110.216064 
	C2454.637695,1117.742920 2460.186523,1123.391235 2465.781494,1128.993408 
	C2499.873535,1163.129028 2533.973877,1197.256348 2568.077393,1231.380371 
	C2573.481445,1236.787598 2578.744385,1242.354004 2584.407959,1247.476196 
	C2587.429932,1250.209106 2588.773682,1253.120728 2588.355225,1257.072510 
	C2588.180664,1258.720581 2588.326416,1260.402466 2588.326416,1262.068970 
	C2588.326416,1452.719604 2588.290771,1643.370361 2588.459229,1834.020874 
	C2588.465820,1841.480103 2586.586914,1846.876221 2581.127930,1852.297363 
	C2520.113037,1912.892090 2459.378906,1973.770020 2398.570312,2034.572998 
	C2366.076660,2067.063721 2333.548096,2099.519531 2301.104004,2132.059814 
	C2270.810791,2162.442871 2240.674561,2192.982422 2210.345215,2223.329346 
	C2185.903809,2247.785156 2161.280518,2272.059570 2136.723633,2296.399902 
	C2135.551758,2297.561523 2134.242676,2298.584229 2132.418945,2300.177246 
	C2083.710205,2215.803955 2035.166626,2131.717285 1986.111694,2046.744629 
	C1990.795532,2041.837891 1995.436279,2036.779297 2000.284302,2031.927734 
	C2061.474854,1970.693115 2122.695312,1909.488525 2183.907471,1848.275391 
	C2222.548828,1809.633179 2261.164307,1770.964966 2299.869385,1732.386597 
	C2303.528809,1728.739014 2305.846191,1725.268799 2305.831787,1719.549561 
	C2305.606445,1629.890869 2305.673584,1540.231689 2305.673584,1450.572510 
	C2305.673584,1449.075806 2305.673584,1447.579102 2305.673584,1445.705078 
	C2164.815918,1586.476807 2024.636597,1726.570801 1883.354858,1867.766479 
	C1878.392456,1859.718994 1874.157593,1853.239990 1870.304810,1846.541260 
	C1840.215454,1794.225342 1810.275513,1741.823364 1780.141357,1689.533325 
	C1743.059814,1625.188110 1705.848511,1560.917358 1668.667847,1496.629272 
	C1641.782104,1450.141968 1614.852417,1403.680298 1587.948364,1357.203491 
	C1580.987061,1345.177856 1573.794678,1333.274536 1567.246216,1321.027466 
	C1565.161133,1317.127930 1563.834229,1312.301392 1563.820435,1307.893921 
	C1563.609619,1240.233643 1563.740845,1172.572144 1563.547119,1104.911743 
	C1563.531494,1099.419189 1565.292358,1095.649658 1569.075562,1091.921509 
	C1588.066406,1073.207520 1606.894775,1054.327881 1625.705933,1035.432373 
	C1688.951538,971.902710 1752.049072,908.225098 1815.427124,844.827881 
	C1869.779175,790.459412 1924.500366,736.460205 1978.938599,682.177734 
	C2011.901611,649.309082 2044.579956,616.155334 2077.491455,583.234985 
	C2107.110352,553.608215 2136.929443,524.181824 2166.555420,494.562500 
	C2196.411377,464.713501 2226.084961,434.682068 2255.937988,404.830109 
	C2285.317871,375.450775 2314.854736,346.228027 2344.263672,316.877502 
	C2370.382080,290.810974 2396.408936,264.652924 2422.496338,238.555405 
	C2440.119141,220.926010 2457.776855,203.331543 2475.419189,185.721634 
	C2475.655029,185.486130 2475.963379,185.292587 2476.120850,185.013351 
	C2482.699707,173.350677 2493.327393,172.996780 2505.218506,173.090927 
	C2564.881592,173.563446 2624.550537,173.347870 2685.108643,173.687027 
	C2686.000000,242.041794 2686.000000,310.083588 2686.000000,379.062683 
M2148.316406,913.318726 
	C2128.377441,933.311279 2108.466797,953.331848 2088.492432,973.289062 
	C2065.694580,996.067566 2042.783569,1018.733215 2020.026001,1041.552002 
	C1996.327148,1065.314575 1972.833374,1089.281494 1949.103882,1113.013306 
	C1916.926147,1145.194458 1884.627441,1177.254761 1852.330078,1209.316040 
	C1848.136475,1213.478882 1846.123047,1217.861694 1846.141724,1224.195801 
	C1846.404297,1313.522827 1846.315918,1402.850708 1846.342529,1492.178467 
	C1846.343262,1494.617676 1846.677246,1497.056885 1846.942383,1500.677246 
	C1849.659790,1498.215820 1851.413086,1496.759766 1853.017944,1495.155273 
	C2002.220581,1345.977783 2151.400391,1196.777466 2300.673340,1047.670288 
	C2304.249268,1044.098389 2305.799316,1040.592529 2305.790527,1035.479858 
	C2305.637451,944.819214 2305.684082,854.158203 2305.642822,763.497253 
	C2305.642090,761.778564 2305.101074,760.060181 2304.715820,757.770813 
	C2303.132324,758.908142 2302.249268,759.374817 2301.575928,760.050110 
	C2272.930420,788.772827 2244.342773,817.553589 2215.661621,846.240417 
	C2193.594727,868.311584 2171.412109,890.267334 2148.316406,913.318726 
z"/>
<path fill="#FEFEFE" opacity="1.000000" stroke="none" 
	d="
M2.000000,174.937317 
	C5.296871,173.764404 8.593603,173.325607 11.890633,173.323364 
	C72.552055,173.282181 133.214020,173.409531 193.874268,173.139160 
	C201.081070,173.107040 206.146179,175.072479 211.299576,180.229874 
	C514.503662,483.669037 817.834839,786.981384 1121.267944,1090.191650 
	C1125.857788,1094.777954 1127.826050,1099.255737 1127.804077,1105.771484 
	C1127.578491,1172.765015 1127.625732,1239.759644 1127.736084,1306.753662 
	C1127.745728,1312.555176 1126.532104,1317.463989 1123.497681,1322.618042 
	C1104.668701,1354.599609 1086.305664,1386.855103 1067.735352,1418.989136 
	C1050.983643,1447.976074 1034.114014,1476.894897 1017.387451,1505.896118 
	C993.720642,1546.930664 970.194275,1588.046387 946.503479,1629.067017 
	C919.782593,1675.334351 892.893188,1721.504395 866.177795,1767.774902 
	C848.462524,1798.457520 830.930908,1829.246216 813.292297,1859.973267 
	C812.149353,1861.964233 810.794495,1863.833618 808.900696,1866.737061 
	C668.338501,1726.159180 528.162598,1585.967651 386.335510,1444.124756 
	C386.335510,1449.570435 386.335510,1453.028198 386.335510,1456.486084 
	C386.335510,1571.476196 386.277344,1686.466431 386.477997,1801.456177 
	C386.490234,1808.465820 384.718170,1814.289062 381.269348,1820.195557 
	C357.681488,1860.592529 334.207123,1901.056274 310.849182,1941.586670 
	C293.134216,1972.325195 275.735443,2003.245972 258.034515,2033.992676 
	C232.207504,2078.854736 206.242569,2123.637451 180.323151,2168.446289 
	C156.277115,2210.016113 132.218964,2251.579346 108.142471,2293.131592 
	C106.913498,2295.252686 105.460510,2297.243896 102.334480,2298.872070 
	C102.334480,2296.368896 102.334488,2293.865479 102.334488,2291.362305 
	C102.334473,1948.058472 102.357468,1604.754639 102.173523,1261.450928 
	C102.169754,1254.417725 104.664009,1249.855835 109.415382,1245.135498 
	C152.375061,1202.456665 195.132736,1159.574585 237.937088,1116.739502 
	C239.562744,1115.112671 241.060577,1113.358276 244.042633,1110.112671 
	C240.722641,1107.524780 237.316040,1105.393921 234.541977,1102.628418 
	C192.761932,1060.977295 151.168488,1019.138062 109.217941,977.659912 
	C103.980087,972.480957 102.188469,967.370056 102.196579,960.210144 
	C102.376740,801.224060 102.289108,642.237610 102.475899,483.251495 
	C102.484726,475.739014 100.530792,470.338837 95.054657,464.970367 
	C66.732880,437.205383 38.846004,408.997009 10.767435,380.983398 
	C8.425557,378.646912 5.786716,376.608032 2.642921,374.215454 
	C2.000000,307.958221 2.000000,241.916428 2.000000,174.937317 
M802.101685,1458.885742 
	C816.093567,1472.874268 830.085388,1486.862671 845.667175,1502.440674 
	C845.667175,1496.887939 845.667236,1493.680908 845.667236,1490.473877 
	C845.667236,1406.161987 845.667236,1321.850098 845.667236,1237.538208 
	C845.667236,1215.305908 845.532043,1215.442871 829.735535,1199.848389 
	C800.178894,1170.669556 770.726746,1141.383911 741.359741,1112.014282 
	C711.045654,1081.697510 680.951843,1051.160522 650.639771,1020.841675 
	C611.870972,982.064392 572.924622,943.464783 534.156433,904.686890 
	C486.858337,857.377136 439.669739,809.957947 392.410217,762.609558 
	C390.921661,761.118225 389.172577,759.886841 386.332855,757.527039 
	C386.332855,761.815918 386.332855,764.382751 386.332855,766.949585 
	C386.332855,799.941223 386.332855,832.932861 386.332855,865.924500 
	C386.332855,921.577026 386.468689,977.230286 386.167999,1032.881226 
	C386.128571,1040.176758 388.146484,1045.288208 393.418427,1050.329956 
	C407.592163,1063.884644 421.148163,1078.083252 435.027802,1091.947876 
	C464.675690,1121.563599 494.406708,1151.096191 524.040283,1180.726196 
	C551.076782,1207.759644 578.007324,1234.899048 605.026001,1261.950439 
	C631.569031,1288.525513 658.156067,1315.056641 684.738953,1341.591919 
	C705.673157,1362.488403 726.669495,1383.322754 747.565308,1404.257446 
	C765.413269,1422.138550 783.157471,1440.123169 802.101685,1458.885742 
z"/>
<path fill="#FEFFFF" opacity="1.000000" stroke="none" 
	d="
M1091.051880,30.733473 
	C1104.308472,28.618174 1116.726685,26.594168 1129.198975,24.989910 
	C1150.233276,22.284313 1171.284668,19.689386 1192.362061,17.345619 
	C1207.515381,15.660586 1222.714233,14.361422 1237.908813,13.080168 
	C1247.163086,12.299831 1256.440430,11.593336 1265.720215,11.351171 
	C1296.640747,10.544278 1327.570435,9.297468 1358.490112,9.462286 
	C1397.001587,9.667570 1435.521606,10.435533 1473.859131,15.160976 
	C1496.883545,17.998955 1520.126831,19.131016 1543.105225,22.254375 
	C1569.986084,25.908195 1596.759644,30.493244 1623.448120,35.391365 
	C1669.360229,43.817528 1714.824219,54.373100 1759.439453,68.104584 
	C1793.894409,78.708954 1828.132446,90.103851 1862.105957,102.164513 
	C1903.948364,117.018616 1944.520264,135.013916 1984.570068,154.190750 
	C2028.569458,175.258865 2071.275635,198.691132 2112.977051,223.961761 
	C2155.892822,249.968094 2197.100586,278.504761 2237.254150,308.579956 
	C2238.320068,309.378326 2239.479492,310.051208 2241.868896,311.617218 
	C2173.805908,380.116791 2106.412109,447.322815 2038.969727,514.723816 
	C1873.155151,397.120087 1690.262207,325.905365 1488.011230,300.852020 
	C1487.882568,304.951996 1487.679321,308.418488 1487.678711,311.885040 
	C1487.661621,409.212128 1487.587158,506.539368 1487.829712,603.865845 
	C1487.847046,610.785767 1485.839966,615.542847 1481.000732,620.344360 
	C1438.884399,662.130737 1397.004272,704.155212 1355.019287,746.074219 
	C1352.666626,748.423218 1350.008667,750.466370 1346.565186,753.457764 
	C1349.699829,756.692749 1352.106079,759.244507 1354.584839,761.724060 
	C1396.530273,803.682678 1438.394897,845.723022 1480.553467,887.466675 
	C1485.684204,892.546936 1487.843506,897.465332 1487.831787,904.754395 
	C1487.606445,1044.744995 1487.689575,1184.736206 1487.582764,1324.727051 
	C1487.578003,1330.872070 1488.756958,1336.239868 1491.878296,1341.617432 
	C1519.017822,1388.374023 1545.918457,1435.269165 1572.967163,1482.078613 
	C1606.965332,1540.914429 1641.109375,1599.666138 1675.049316,1658.535645 
	C1697.082520,1696.752808 1718.742554,1735.185181 1740.783813,1773.397705 
	C1783.180420,1846.900024 1825.705688,1920.328003 1868.223755,1993.760254 
	C1892.157959,2035.097046 1916.286865,2076.321289 1940.143433,2117.702637 
	C1972.923340,2174.562744 2005.499023,2231.540771 2038.218262,2288.435791 
	C2062.200195,2330.137695 2086.339111,2371.749512 2110.282715,2413.473389 
	C2130.594727,2448.867676 2150.750732,2484.352051 2170.934570,2519.819824 
	C2196.807617,2565.285645 2222.552490,2610.824463 2248.512695,2656.240234 
	C2276.513184,2705.224854 2304.637939,2754.138916 2332.927979,2802.956299 
	C2334.985352,2806.506592 2334.956543,2809.065918 2333.925293,2812.865967 
	C2321.371094,2859.114014 2309.110840,2905.442139 2296.774414,2951.749268 
	C2292.460693,2967.941406 2288.146729,2984.133545 2283.654297,3000.995117 
	C2272.397949,2998.146484 2261.813721,2995.578613 2251.289551,2992.784180 
	C2219.984131,2984.471924 2188.696289,2976.093994 2157.413818,2967.695557 
	C2136.604492,2962.108643 2115.838867,2956.358154 2094.999023,2950.888184 
	C2091.130859,2949.873047 2088.879150,2947.823486 2086.921387,2944.418213 
	C2047.911987,2876.570312 2008.774292,2808.796143 1969.687378,2740.992920 
	C1947.499512,2702.504395 1925.410522,2663.958984 1903.177490,2625.496338 
	C1878.777588,2583.284912 1854.229370,2541.159180 1829.807129,2498.960938 
	C1796.605713,2441.593994 1763.449951,2384.201172 1730.308228,2326.799561 
	C1725.684570,2318.791504 1721.252930,2310.672607 1716.660034,2302.476074 
	C1639.746216,2302.476074 1563.215820,2302.476074 1485.665039,2302.476074 
	C1485.665039,2305.975098 1485.665039,2309.203369 1485.665039,2312.431396 
	C1485.665039,2428.424072 1485.718140,2544.416504 1485.524170,2660.408936 
	C1485.513306,2666.917480 1487.546387,2671.470215 1491.830566,2676.204834 
	C1535.748535,2724.741699 1579.414795,2773.506592 1623.208252,2822.156494 
	C1650.312012,2852.265869 1677.517578,2882.283203 1704.650269,2912.366699 
	C1705.265991,2913.049316 1705.554321,2914.027100 1706.616821,2916.050781 
	C1464.587769,2975.614014 1223.378540,2975.589600 980.454590,2915.867432 
	C986.479004,2909.012939 991.197571,2903.527100 996.040710,2898.153320 
	C1020.719666,2870.771484 1045.481445,2843.464111 1070.119019,2816.044922 
	C1107.846558,2774.057373 1145.484619,2731.989990 1183.194214,2689.986328 
	C1187.863770,2684.785156 1192.620483,2679.650879 1197.554443,2674.702393 
	C1201.064575,2671.181885 1202.506836,2667.316895 1202.445679,2662.251465 
	C1202.196777,2641.589111 1202.341919,2620.922119 1202.341919,2600.256836 
	C1202.341919,2504.929688 1202.341919,2409.602295 1202.341919,2314.275146 
	C1202.341919,2310.628174 1202.341919,2306.981445 1202.341919,2302.787354 
	C1199.816284,2302.534180 1197.598511,2302.118896 1195.380493,2302.117676 
	C1124.718384,2302.083496 1054.056030,2302.172119 983.394653,2301.945312 
	C977.198181,2301.925537 973.799316,2304.017822 970.813110,2309.254639 
	C950.113342,2345.553223 929.174744,2381.715820 908.259399,2417.891357 
	C887.526672,2453.751221 866.648376,2489.526855 845.987305,2525.427979 
	C825.812744,2560.483643 805.917542,2595.700195 785.737183,2630.752441 
	C770.844849,2656.619385 755.621826,2682.295410 740.672302,2708.129639 
	C724.253540,2736.502441 708.032104,2764.989014 691.628662,2793.370605 
	C670.872070,2829.284668 649.992310,2865.126953 629.220581,2901.032227 
	C621.243652,2914.820557 613.178040,2928.568115 605.646912,2942.599121 
	C602.848999,2947.811768 599.091064,2950.366455 593.562805,2951.822510 
	C551.916687,2962.792236 510.329865,2973.987549 468.717529,2985.086182 
	C448.895660,2990.372559 429.058472,2995.601318 408.369751,3001.083984 
	C406.224976,2994.200684 404.067749,2988.027832 402.376648,2981.729980 
	C390.286133,2936.704346 378.284637,2891.655029 366.269257,2846.609131 
	C363.380432,2835.778809 360.683777,2824.894531 357.619385,2814.114746 
	C356.362366,2809.692871 356.660828,2806.015869 359.068420,2801.903809 
	C378.325195,2769.013672 397.458771,2736.050293 416.428680,2702.993652 
	C436.725647,2667.624268 456.704620,2632.072510 477.004913,2596.705322 
	C496.312103,2563.068359 515.930542,2529.609863 535.273682,2495.993408 
	C557.259949,2457.783447 579.001160,2419.432617 601.015259,2381.238770 
	C629.810669,2331.279785 658.842407,2281.456543 687.634827,2231.495850 
	C712.132629,2188.987305 736.356201,2146.321045 760.846313,2103.808105 
	C786.658936,2058.999756 812.730286,2014.340454 838.527832,1969.523438 
	C861.858032,1928.992798 884.893494,1888.292358 908.200012,1847.747925 
	C938.263000,1795.449707 968.496155,1743.249390 998.599060,1690.974121 
	C1019.297852,1655.029541 1039.829590,1618.988770 1060.565186,1583.065552 
	C1080.610352,1548.338013 1100.900391,1513.751709 1120.934204,1479.017700 
	C1137.979858,1449.464478 1154.818848,1419.791870 1171.740234,1390.166870 
	C1181.116821,1373.750854 1190.257690,1357.194214 1199.974121,1340.982178 
	C1202.882935,1336.128906 1203.731445,1331.401245 1203.727905,1325.971436 
	C1203.646729,1201.646118 1203.665161,1077.320679 1203.665161,952.995361 
	C1203.665161,935.996460 1203.888916,918.992859 1203.536743,902.001282 
	C1203.422607,896.500122 1205.270142,892.768372 1209.076172,888.981873 
	C1251.591919,846.684204 1293.945923,804.224121 1336.381836,761.846130 
	C1338.705933,759.525391 1341.369019,757.544250 1344.517334,754.856262 
	C1335.941162,746.069031 1328.417725,738.186096 1320.706665,730.491150 
	C1294.615479,704.454773 1268.448364,678.494507 1242.330322,652.485168 
	C1231.496704,641.696594 1220.833130,630.733826 1209.850098,620.100281 
	C1205.257690,615.653931 1203.504883,610.867004 1203.519165,604.356995 
	C1203.730713,507.363678 1203.665161,410.369751 1203.665161,313.375977 
	C1203.665161,309.762238 1203.665283,306.148529 1203.665283,301.082245 
	C1103.739380,312.579559 1007.974487,336.845947 915.099426,372.778687 
	C821.857666,408.853394 734.595947,456.109100 654.064819,513.736938 
	C586.578369,446.250214 519.456848,379.128448 451.525879,311.197205 
	C456.220032,307.481018 461.892212,302.690735 467.864777,298.310059 
	C512.875488,265.296387 559.247192,234.313965 607.650696,206.495407 
	C658.050110,177.529755 709.913879,151.451889 763.370483,128.512268 
	C802.081665,111.900276 841.431458,97.072105 881.355591,83.698929 
	C927.537781,68.229492 974.490234,55.482891 1021.929932,44.596592 
	C1044.547241,39.406464 1067.459229,35.500916 1091.051880,30.733473 
M1186.753418,1935.624634 
	C1170.971436,1963.026733 1155.189575,1990.428711 1138.574463,2019.277344 
	C1164.910156,2019.277344 1189.435791,2019.254150 1213.961426,2019.302368 
	C1217.666016,2019.309692 1218.833618,2016.802979 1220.385986,2014.087402 
	C1230.089355,1997.113647 1240.016479,1980.268066 1249.789307,1963.333862 
	C1275.288574,1919.148926 1300.734497,1874.933228 1326.230591,1830.746338 
	C1331.791016,1821.109497 1337.473022,1811.542725 1343.731201,1800.865356 
	C1345.843384,1803.924438 1347.234497,1805.671631 1348.341797,1807.583008 
	C1367.263794,1840.245117 1386.178345,1872.911377 1405.037598,1905.609619 
	C1425.564209,1941.198486 1446.164673,1976.746216 1466.376709,2012.513184 
	C1469.257202,2017.610840 1472.290283,2019.512085 1478.049927,2019.431641 
	C1500.032959,2019.125000 1522.022949,2019.307739 1544.010254,2019.307739 
	C1546.486938,2019.307739 1548.963501,2019.307739 1553.125488,2019.307739 
	C1483.534790,1898.770630 1414.888916,1779.869995 1345.853394,1660.294312 
	C1332.764648,1682.695679 1320.320312,1703.777832 1308.086182,1724.981323 
	C1287.716919,1760.284668 1267.505737,1795.679199 1247.183594,1831.009644 
	C1227.348145,1865.494019 1207.457153,1899.946289 1186.753418,1935.624634 
z"/>
<path fill="#020202" opacity="1.000000" stroke="none" 
	d="
M2148.798828,912.796509 
	C2171.412109,890.267334 2193.594727,868.311584 2215.661621,846.240417 
	C2244.342773,817.553589 2272.930420,788.772827 2301.575928,760.050110 
	C2302.249268,759.374817 2303.132324,758.908142 2304.715820,757.770813 
	C2305.101074,760.060181 2305.642090,761.778564 2305.642822,763.497253 
	C2305.684082,854.158203 2305.637451,944.819214 2305.790527,1035.479858 
	C2305.799316,1040.592529 2304.249268,1044.098389 2300.673340,1047.670288 
	C2151.400391,1196.777466 2002.220581,1345.977783 1853.017944,1495.155273 
	C1851.413086,1496.759766 1849.659790,1498.215820 1846.942383,1500.677246 
	C1846.677246,1497.056885 1846.343262,1494.617676 1846.342529,1492.178467 
	C1846.315918,1402.850708 1846.404297,1313.522827 1846.141724,1224.195801 
	C1846.123047,1217.861694 1848.136475,1213.478882 1852.330078,1209.316040 
	C1884.627441,1177.254761 1916.926147,1145.194458 1949.103882,1113.013306 
	C1972.833374,1089.281494 1996.327148,1065.314575 2020.026001,1041.552002 
	C2042.783569,1018.733215 2065.694580,996.067566 2088.492432,973.289062 
	C2108.466797,953.331848 2128.377441,933.311279 2148.798828,912.796509 
z"/>
<path fill="#010101" opacity="1.000000" stroke="none" 
	d="
M801.524658,1458.473877 
	C783.157471,1440.123169 765.413269,1422.138550 747.565308,1404.257446 
	C726.669495,1383.322754 705.673157,1362.488403 684.738953,1341.591919 
	C658.156067,1315.056641 631.569031,1288.525513 605.026001,1261.950439 
	C578.007324,1234.899048 551.076782,1207.759644 524.040283,1180.726196 
	C494.406708,1151.096191 464.675690,1121.563599 435.027802,1091.947876 
	C421.148163,1078.083252 407.592163,1063.884644 393.418427,1050.329956 
	C388.146484,1045.288208 386.128571,1040.176758 386.167999,1032.881226 
	C386.468689,977.230286 386.332855,921.577026 386.332855,865.924500 
	C386.332855,832.932861 386.332855,799.941223 386.332855,766.949585 
	C386.332855,764.382751 386.332855,761.815918 386.332855,757.527039 
	C389.172577,759.886841 390.921661,761.118225 392.410217,762.609558 
	C439.669739,809.957947 486.858337,857.377136 534.156433,904.686890 
	C572.924622,943.464783 611.870972,982.064392 650.639771,1020.841675 
	C680.951843,1051.160522 711.045654,1081.697510 741.359741,1112.014282 
	C770.726746,1141.383911 800.178894,1170.669556 829.735535,1199.848389 
	C845.532043,1215.442871 845.667236,1215.305908 845.667236,1237.538208 
	C845.667236,1321.850098 845.667236,1406.161987 845.667236,1490.473877 
	C845.667236,1493.680908 845.667175,1496.887939 845.667175,1502.440674 
	C830.085388,1486.862671 816.093567,1472.874268 801.524658,1458.473877 
z"/>
<path fill="#020303" opacity="1.000000" stroke="none" 
	d="
M1187.171875,1935.018555 
	C1207.457153,1899.946289 1227.348145,1865.494019 1247.183594,1831.009644 
	C1267.505737,1795.679199 1287.716919,1760.284668 1308.086182,1724.981323 
	C1320.320312,1703.777832 1332.764648,1682.695679 1345.853394,1660.294312 
	C1414.888916,1779.869995 1483.534790,1898.770630 1553.125488,2019.307739 
	C1548.963501,2019.307739 1546.486938,2019.307739 1544.010254,2019.307739 
	C1522.022949,2019.307739 1500.032959,2019.125000 1478.049927,2019.431641 
	C1472.290283,2019.512085 1469.257202,2017.610840 1466.376709,2012.513184 
	C1446.164673,1976.746216 1425.564209,1941.198486 1405.037598,1905.609619 
	C1386.178345,1872.911377 1367.263794,1840.245117 1348.341797,1807.583008 
	C1347.234497,1805.671631 1345.843384,1803.924438 1343.731201,1800.865356 
	C1337.473022,1811.542725 1331.791016,1821.109497 1326.230591,1830.746338 
	C1300.734497,1874.933228 1275.288574,1919.148926 1249.789307,1963.333862 
	C1240.016479,1980.268066 1230.089355,1997.113647 1220.385986,2014.087402 
	C1218.833618,2016.802979 1217.666016,2019.309692 1213.961426,2019.302368 
	C1189.435791,2019.254150 1164.910156,2019.277344 1138.574463,2019.277344 
	C1155.189575,1990.428711 1170.971436,1963.026733 1187.171875,1935.018555 
z"/>
</svg>